<?xml version="1.0" encoding="UTF-8" standalone="no"?><!DOCTYPE svg PUBLIC "-//W3C//DTD SVG 1.1//EN" "http://www.w3.org/Graphics/SVG/1.1/DTD/svg11.dtd"><svg width="100%" height="100%" viewBox="0 0 946 768" version="1.1" xmlns="http://www.w3.org/2000/svg" xmlns:xlink="http://www.w3.org/1999/xlink" xml:space="preserve" xmlns:serif="http://www.serif.com/" style="fill-rule:evenodd;clip-rule:evenodd;stroke-linejoin:round;stroke-miterlimit:2;"><path id="Twitter" d="M848.394,191.192c0.576,8.332 0.576,16.664 0.576,25.073c0,256.227 -195.059,551.735 -551.734,551.735l-0,-0.154c-105.363,0.154 -208.538,-30.026 -297.236,-86.932c15.321,1.843 30.718,2.765 46.154,2.803c87.316,0.077 172.136,-29.22 240.829,-83.169c-82.977,-1.574 -155.74,-55.676 -181.159,-134.66c29.067,5.606 59.017,4.454 87.546,-3.341c-90.464,-18.277 -155.548,-97.76 -155.548,-190.068l-0,-2.457c26.955,15.013 57.135,23.346 88.007,24.267c-85.204,-56.944 -111.468,-170.293 -60.016,-258.915c98.452,121.145 243.71,194.791 399.642,202.586c-15.627,-67.349 5.722,-137.924 56.099,-185.268c78.101,-73.417 200.935,-69.654 274.351,8.409c43.428,-8.563 85.051,-24.498 123.141,-47.076c-14.476,44.887 -44.772,83.016 -85.243,107.245c38.436,-4.531 75.989,-14.822 111.353,-30.526c-26.033,39.011 -58.825,72.993 -96.762,100.448Z" style="fill:#1d9bf0;fill-rule:nonzero;"/></svg>