<?xml version="1.0" standalone="no"?>
<!DOCTYPE svg PUBLIC "-//W3C//DTD SVG 20010904//EN"
 "http://www.w3.org/TR/2001/REC-SVG-20010904/DTD/svg10.dtd">
<svg version="1.0" xmlns="http://www.w3.org/2000/svg"
 width="512.000000pt" height="512.000000pt" viewBox="0 0 512.000000 512.000000"
 preserveAspectRatio="xMidYMid meet">
<metadata>
Created by potrace 1.14, written by Peter Selinger 2001-2017
</metadata>
<g transform="translate(0.000000,512.000000) scale(0.100000,-0.100000)"
fill="#000000" stroke="none">
<path d="M0 2560 l0 -2560 2560 0 2560 0 0 2560 0 2560 -2560 0 -2560 0 0
-2560z m2718 1607 c85 -259 194 -597 244 -749 l90 -278 796 -2 797 -3 -625
-454 c-344 -249 -633 -461 -643 -470 -17 -17 -7 -50 226 -767 134 -412 243
-751 241 -752 -1 -2 -291 206 -643 462 l-641 466 -641 -466 c-352 -256 -642
-464 -643 -462 -2 1 107 340 241 752 233 717 243 750 226 767 -10 9 -299 221
-643 470 l-625 454 797 3 796 2 90 278 c50 152 159 490 244 749 84 260 155
473 158 473 3 0 74 -213 158 -473z"/>
</g>
</svg>
